<svg width="399" height="386" viewBox="0 0 399 386" fill="none" xmlns="http://www.w3.org/2000/svg">
<path d="M198.478 238.582C198.682 248.311 198.682 258.354 198.887 268.084C198.887 258.354 198.478 248.311 198.478 238.582Z" stroke="black" stroke-miterlimit="10"/>
<path d="M198.478 238.582C198.682 248.311 198.682 258.354 198.887 268.084L198.273 267.77C198.478 258.041 198.273 248.311 198.478 238.582Z" stroke="black" stroke-miterlimit="10"/>
<path d="M199.705 218.183C199.296 225.088 198.887 231.679 198.478 238.583C198.273 231.679 199.296 225.088 199.705 218.183Z" stroke="black" stroke-miterlimit="10"/>
<path d="M200.114 217.868C198.682 234.188 198.682 250.822 198.682 267.456C175.982 250.822 63.0974 167.967 43.0562 153.216L41.4202 148.194C78.844 120.889 132.628 81.3447 170.256 53.7261L171.688 58.4338L148.17 120.889L146.943 121.831L107.679 150.705L200.114 217.868Z" fill="#1D2C4E" stroke="#1D2C4E" stroke-miterlimit="10"/>
<path d="M356.353 153.843L327.518 174.871C328.541 177.696 327.518 185.228 326.905 195.899C326.905 198.41 326.905 291.936 326.905 302.607C329.154 308.884 324.451 313.906 320.77 308.884V180.207C320.974 179.893 320.974 179.893 321.179 179.579L198.478 269.653C198.273 266.201 198.273 262.435 198.069 258.982C198.069 259.924 198.069 261.179 198.069 262.121C198.682 247.37 198.069 232.933 199.5 218.496C199.705 218.182 290.708 151.646 290.913 151.333C275.575 140.034 260.442 128.736 245.104 117.437C236.924 94.5262 228.744 71.3015 220.564 48.3906C266.168 82.2862 311.976 115.868 357.58 149.763L356.353 153.843Z" fill="#3978D7" stroke="#3978D7" stroke-miterlimit="10"/>
<path d="M198.478 111.161L176.8 184.288L148.988 164.829C163.303 116.183 183.14 49.6472 197.455 1.3147H198.069V111.161H198.478Z" fill="#3978D7" stroke="#3978D7" stroke-width="0.5" stroke-miterlimit="10"/>
<path d="M248.376 165.142L220.768 184.287C220.564 183.973 199.091 111.16 198.887 110.533C197.455 109.277 198.887 2.88309 198.478 1H199.705C214.224 49.9602 233.856 116.496 248.376 165.142Z" fill="#1D2C4E" stroke="#1D2C4E" stroke-width="0.5" stroke-miterlimit="10"/>
<path d="M126.902 233.562H126.084L126.289 232.934L126.902 233.562Z" stroke="black" stroke-width="0.5" stroke-miterlimit="10"/>
<path d="M154.919 253.333C150.829 267.77 142.24 297.9 138.15 312.337H105.02L103.793 311.395C109.11 292.25 120.358 253.019 125.879 233.875C133.037 236.699 147.966 248.939 154.919 253.333Z" fill="#3366CC" stroke="#3366CC" stroke-width="0.5" stroke-miterlimit="10"/>
<path d="M240.81 253.333C244.9 267.77 253.489 297.9 257.579 312.337H290.708L291.935 311.395C286.618 292.25 275.37 253.019 269.849 233.875C262.896 236.699 247.967 248.939 240.81 253.333Z" fill="#1D2C4E" stroke="#1D2C4E" stroke-width="0.5" stroke-miterlimit="10"/>
<path d="M16.0584 332.894H23.0092L38.8278 364.84H32.3565L24.2075 347.009C22.5298 343.481 20.8521 339.952 19.414 336.237H19.1742C17.7362 339.952 16.0585 343.481 14.6204 347.009L6.23171 364.84H0L16.0584 332.894ZM8.38872 351.839H29.9597V355.182H8.38872V351.839Z" fill="#1D2C4E"/>
<path d="M45.7786 348.867C45.7786 338.652 54.6466 332.337 66.8702 332.337C72.6224 332.337 76.9366 334.194 79.8127 336.237L76.4573 338.837C74.0605 337.166 70.9447 335.866 66.8702 335.866C57.7624 335.866 52.0101 340.88 52.0101 348.681C52.0101 356.668 58.0021 361.682 66.8702 361.682C71.1844 361.682 74.5398 360.382 77.4159 358.153L80.7715 360.568C77.1763 363.54 72.3828 365.211 66.1512 365.211C54.6466 365.397 45.7786 359.268 45.7786 348.867Z" fill="#1D2C4E"/>
<path d="M102.342 332.894H109.293L125.112 364.84H118.64L110.491 347.009C108.814 343.481 107.376 339.952 105.938 336.237H105.698C104.26 339.952 102.582 343.481 100.904 347.009L92.5156 364.84H86.2839L102.342 332.894ZM94.6727 351.839H116.244V355.182H94.6727V351.839Z" fill="#1D2C4E"/>
<path d="M133.5 332.894H145.245C159.386 332.894 167.055 338.651 167.055 348.681C167.055 358.896 159.386 364.84 145.484 364.84H133.5V332.894ZM144.765 361.497C155.551 361.497 160.824 356.853 160.824 348.681C160.824 340.695 155.551 336.237 144.765 336.237H139.492V361.497H144.765Z" fill="#1D2C4E"/>
<path d="M178.56 332.894H207.801V336.423H184.552V346.452H204.205V349.981H184.552V361.682H208.52V365.211H178.56V332.894Z" fill="#1D2C4E"/>
<path d="M218.826 332.894H226.256L232.967 346.638L235.364 351.839H235.603L237.76 346.638L244.471 332.894H251.901V364.84H246.149V348.867C246.149 345.709 246.868 340.323 247.108 337.537H246.868L244.232 343.852L237.521 356.482H233.206L226.495 343.852L223.859 337.537H223.619C224.099 340.323 224.578 345.709 224.578 348.867V364.84H219.065V332.894H218.826Z" fill="#1D2C4E"/>
<path d="M263.646 361.311H275.39V336.237H263.646V332.708H293.126V336.237H281.382V361.311H293.126V364.84H263.646V361.311Z" fill="#1D2C4E"/>
<path d="M399.009 385.215L384.469 385.046L371.433 368.475C368.257 363.91 364.914 359.513 361.739 355.117H361.07C357.561 359.175 353.884 364.079 350.374 367.968L336.335 384.37L321.126 384.201L352.212 348.353L324.302 312.337L338.842 312.506L350.541 328.231C353.215 332.29 356.558 336.686 359.399 340.575H360.068C363.41 336.686 366.753 332.459 369.594 328.57L382.463 313.013L397.505 313.182L369.093 347.508L399.009 385.215Z" fill="#3978D7"/>
</svg>
