<svg width="52" height="52" viewBox="0 0 52 52" fill="none" xmlns="http://www.w3.org/2000/svg">
<path d="M25.8383 39.1553C25.8706 40.7178 25.8706 42.3307 25.9029 43.8932C25.9029 42.3307 25.8383 40.7178 25.8383 39.1553Z" stroke="black" stroke-miterlimit="10"/>
<path d="M25.8384 39.1553C25.8707 40.7178 25.8707 42.3307 25.9031 43.8932L25.806 43.8428C25.8384 42.2803 25.806 40.7178 25.8384 39.1553Z" stroke="black" stroke-miterlimit="10"/>
<path d="M26.0324 35.8789C25.9677 36.9878 25.903 38.0462 25.8383 39.1551C25.806 38.0462 25.9677 36.9878 26.0324 35.8789Z" stroke="black" stroke-miterlimit="10"/>
<path d="M26.097 35.8287C25.8706 38.4496 25.8706 41.121 25.8706 43.7924C22.2807 41.121 4.4282 27.8145 1.25873 25.4456L1 24.6391C6.9185 20.2541 15.4243 13.9033 21.3752 9.46777L21.6015 10.2238L17.8823 20.2541L17.6882 20.4053L11.4786 25.0424L26.097 35.8287Z" fill="#1D2C4E" stroke="#1D2C4E" stroke-miterlimit="10"/>
<path d="M50.8059 25.5463L46.2457 28.9233C46.4075 29.377 46.2457 30.5866 46.1487 32.3004C46.1487 32.7036 46.1487 47.7237 46.1487 49.4374C46.5045 50.4455 45.7606 51.252 45.1785 50.4455V29.7802C45.2108 29.7298 45.2108 29.7298 45.2432 29.6794L25.8382 44.1451C25.8059 43.5907 25.8059 42.9858 25.7736 42.4314C25.7736 42.5826 25.7736 42.7842 25.7736 42.9354C25.8706 40.5665 25.7736 38.2479 26 35.9294C26.0323 35.879 40.4243 25.1935 40.4566 25.1431C38.031 23.3286 35.6377 21.5141 33.2121 19.6995C31.9185 16.0201 30.6248 12.2903 29.3311 8.61084C36.5433 14.0544 43.7878 19.4475 51 24.8911L50.8059 25.5463Z" fill="#3978D7" stroke="#3978D7" stroke-miterlimit="10"/>
<path d="M25.8383 18.6914L22.41 30.4354L18.0116 27.3104C20.2755 19.4979 23.4126 8.81239 25.6765 1.05029H25.7736V18.6914H25.8383Z" fill="#3978D7" stroke="#3978D7" stroke-width="0.5" stroke-miterlimit="10"/>
<path d="M33.7296 27.3609L29.3635 30.4355C29.3312 30.3851 25.9354 18.6915 25.903 18.5907C25.6766 18.3891 25.903 1.30242 25.8383 1H26.0324C28.3286 8.8629 31.4334 19.5484 33.7296 27.3609Z" fill="#1D2C4E" stroke="#1D2C4E" stroke-width="0.5" stroke-miterlimit="10"/>
<path d="M14.5188 38.3489H14.3894L14.4218 38.248L14.5188 38.3489Z" stroke="black" stroke-width="0.5" stroke-miterlimit="10"/>
<path d="M18.9495 41.5244C18.3027 43.843 16.9443 48.6817 16.2975 51.0002H11.0582L10.8641 50.849C11.705 47.7744 13.4838 41.474 14.357 38.3994C15.489 38.853 17.8499 40.8188 18.9495 41.5244Z" fill="#3366CC" stroke="#3366CC" stroke-width="0.5" stroke-miterlimit="10"/>
<path d="M32.533 41.5244C33.1798 43.843 34.5381 48.6817 35.1849 51.0002H40.4243L40.6183 50.849C39.7775 47.7744 37.9987 41.474 37.1254 38.3994C36.0258 38.853 33.6649 40.8188 32.533 41.5244Z" fill="#1D2C4E" stroke="#1D2C4E" stroke-width="0.5" stroke-miterlimit="10"/>
</svg>
