<svg width="215" height="189" viewBox="0 0 215 189" fill="none" xmlns="http://www.w3.org/2000/svg">
<path d="M106.811 144.049C106.949 149.907 106.949 155.954 107.086 161.812C107.086 155.954 106.811 149.907 106.811 144.049Z" stroke="#3978D7" stroke-miterlimit="10"/>
<path d="M106.811 144.049C106.949 149.907 106.949 155.954 107.087 161.812L106.673 161.623C106.811 155.765 106.673 149.907 106.811 144.049Z" stroke="#3978D7" stroke-miterlimit="10"/>
<path d="M107.638 131.766C107.362 135.923 107.087 139.891 106.811 144.049C106.673 139.891 107.362 135.923 107.638 131.766Z" stroke="#3978D7" stroke-miterlimit="10"/>
<path d="M107.913 131.577C106.949 141.403 106.949 151.419 106.949 161.434C91.6557 151.419 15.6041 101.531 2.10218 92.6497L1 89.6262C26.2128 73.1859 62.4475 49.376 87.7981 32.7468L88.7625 35.5813L72.9184 73.186L72.0917 73.7529L45.639 91.138L107.913 131.577Z" fill="#3978D7" stroke="#3978D7" stroke-miterlimit="10"/>
<path d="M213.174 93.0275L193.748 105.688C194.436 107.389 193.748 111.924 193.334 118.349C193.334 119.861 193.334 176.173 193.334 182.598C194.85 186.378 191.681 189.401 189.201 186.378V108.901C189.339 108.712 189.339 108.712 189.477 108.523L106.812 162.757C106.674 160.678 106.674 158.41 106.536 156.332C106.536 156.899 106.536 157.655 106.536 158.221C106.949 149.34 106.536 140.647 107.501 131.955C107.638 131.766 168.948 91.7046 169.086 91.5157C158.753 84.7128 148.557 77.91 138.224 71.1072C132.713 57.3125 127.202 43.3288 121.691 29.5342C152.415 49.9427 183.277 70.1623 214 90.5708L213.174 93.0275Z" fill="white" stroke="white" stroke-miterlimit="10"/>
<path d="M106.811 67.3278L92.2073 111.357L73.47 99.6413C83.1142 70.3513 96.4784 30.29 106.123 1.18896H106.536V67.3278H106.811Z" fill="white" stroke="white" stroke-width="0.5" stroke-miterlimit="10"/>
<path d="M140.428 99.8303L121.829 111.357C121.691 111.168 107.225 67.3278 107.087 66.9498C106.122 66.194 107.087 2.13381 106.811 1H107.638C117.42 30.479 130.646 70.5403 140.428 99.8303Z" fill="#3978D7" stroke="#3978D7" stroke-width="0.5" stroke-miterlimit="10"/>
<path d="M58.5902 141.025H58.0391L58.1769 140.647L58.5902 141.025Z" stroke="#3978D7" stroke-width="0.5" stroke-miterlimit="10"/>
<path d="M77.4652 152.93C74.7097 161.622 68.9231 179.763 66.1676 188.456H43.8481L43.0215 187.889C46.6036 176.362 54.1812 152.741 57.9011 141.214C62.7233 142.915 72.7808 150.284 77.4652 152.93Z" fill="#3366CC" stroke="#3366CC" stroke-width="0.5" stroke-miterlimit="10"/>
<path d="M135.33 152.93C138.086 161.622 143.872 179.763 146.628 188.456H168.947L169.774 187.889C166.192 176.362 158.614 152.741 154.894 141.214C150.21 142.915 140.152 150.284 135.33 152.93Z" fill="#3978D7" stroke="#3978D7" stroke-width="0.5" stroke-miterlimit="10"/>
</svg>
